<svg width="790" height="750" xmlns="http://www.w3.org/2000/svg" xmlns:xlink="http://www.w3.org/1999/xlink" version="1.1" baseProfile="full" viewBox="0 0 790 750">
<rect width="790" height="750" x="0" y="0" id="0" fill="rgb(0,0,0)" fill-opacity="0"></rect>
<path d="M79 675.5L750.5 675.5" fill="none" stroke="#E0E6F1"></path>
<path d="M79 584.5L750.5 584.5" fill="none" stroke="#E0E6F1"></path>
<path d="M79 492.5L750.5 492.5" fill="none" stroke="#E0E6F1"></path>
<path d="M79 401.5L750.5 401.5" fill="none" stroke="#E0E6F1"></path>
<path d="M79 310.5L750.5 310.5" fill="none" stroke="#E0E6F1"></path>
<path d="M79 219.5L750.5 219.5" fill="none" stroke="#E0E6F1"></path>
<path d="M79 127.5L750.5 127.5" fill="none" stroke="#E0E6F1"></path>
<path d="M79 584.5L750.5 584.5" fill="none" stroke="#d3d3d3bf" stroke-linecap="round"></path>
<path d="M79 675.5L49 675.5" fill="none" stroke="#d3d3d3bf"></path>
<path d="M79 584.5L49 584.5" fill="none" stroke="#d3d3d3bf"></path>
<path d="M79 492.5L49 492.5" fill="none" stroke="#d3d3d3bf"></path>
<path d="M79 401.5L49 401.5" fill="none" stroke="#d3d3d3bf"></path>
<path d="M79 310.5L49 310.5" fill="none" stroke="#d3d3d3bf"></path>
<path d="M79 219.5L49 219.5" fill="none" stroke="#d3d3d3bf"></path>
<path d="M79 127.5L49 127.5" fill="none" stroke="#d3d3d3bf"></path>
<path d="M89.5 583.75L89.5 588.75" fill="none" stroke="#d3d3d3bf"></path>
<path d="M173.5 583.75L173.5 588.75" fill="none" stroke="#d3d3d3bf"></path>
<path d="M257.5 583.75L257.5 588.75" fill="none" stroke="#d3d3d3bf"></path>
<path d="M341.5 583.75L341.5 588.75" fill="none" stroke="#d3d3d3bf"></path>
<path d="M425.5 583.75L425.5 588.75" fill="none" stroke="#d3d3d3bf"></path>
<path d="M509.5 583.75L509.5 588.75" fill="none" stroke="#d3d3d3bf"></path>
<path d="M593.5 583.75L593.5 588.75" fill="none" stroke="#d3d3d3bf"></path>
<path d="M677.5 583.75L677.5 588.75" fill="none" stroke="#d3d3d3bf"></path>
<path d="M740.5 583.75L740.5 588.75" fill="none" stroke="#d3d3d3bf"></path>
<text dominant-baseline="central" text-anchor="start" style="font-size:14px;font-family:'Open Sans', sans-serif;" y="-9" transform="translate(49 675)" fill="gray">-10,000</text>
<text dominant-baseline="central" text-anchor="start" style="font-size:14px;font-family:'Open Sans', sans-serif;" y="-9" transform="translate(49 583.75)" fill="gray">0</text>
<text dominant-baseline="central" text-anchor="start" style="font-size:14px;font-family:'Open Sans', sans-serif;" y="-9" transform="translate(49 492.5)" fill="gray">10,000</text>
<text dominant-baseline="central" text-anchor="start" style="font-size:14px;font-family:'Open Sans', sans-serif;" y="-9" transform="translate(49 401.25)" fill="gray">20,000</text>
<text dominant-baseline="central" text-anchor="start" style="font-size:14px;font-family:'Open Sans', sans-serif;" y="-9" transform="translate(49 310)" fill="gray">30,000</text>
<text dominant-baseline="central" text-anchor="start" style="font-size:14px;font-family:'Open Sans', sans-serif;" y="-9" transform="translate(49 218.75)" fill="gray">40,000</text>
<text dominant-baseline="central" text-anchor="start" style="font-size:14px;font-family:'Open Sans', sans-serif;" y="-9" transform="translate(49 127.5)" fill="gray">50,000</text>
<text dominant-baseline="central" text-anchor="middle" style="font-size:14px;font-family:'Open Sans', sans-serif;" y="7" transform="translate(89.4922 683)" fill="gray">2021</text>
<text dominant-baseline="central" text-anchor="middle" style="font-size:14px;font-family:'Open Sans', sans-serif;" y="7" transform="translate(173.4297 683)" fill="gray">2025</text>
<text dominant-baseline="central" text-anchor="middle" style="font-size:14px;font-family:'Open Sans', sans-serif;" y="7" transform="translate(257.3672 683)" fill="gray">2029</text>
<text dominant-baseline="central" text-anchor="middle" style="font-size:14px;font-family:'Open Sans', sans-serif;" y="7" transform="translate(341.3047 683)" fill="gray">2033</text>
<text dominant-baseline="central" text-anchor="middle" style="font-size:14px;font-family:'Open Sans', sans-serif;" y="7" transform="translate(425.2422 683)" fill="gray">2037</text>
<text dominant-baseline="central" text-anchor="middle" style="font-size:14px;font-family:'Open Sans', sans-serif;" y="7" transform="translate(509.1797 683)" fill="gray">2041</text>
<text dominant-baseline="central" text-anchor="middle" style="font-size:14px;font-family:'Open Sans', sans-serif;" y="7" transform="translate(593.1172 683)" fill="gray">2045</text>
<text dominant-baseline="central" text-anchor="middle" style="font-size:14px;font-family:'Open Sans', sans-serif;" y="7" transform="translate(677.0547 683)" fill="gray">2049</text>
<text dominant-baseline="central" text-anchor="middle" style="font-size:14px;font-family:'Open Sans', sans-serif;" y="7" transform="translate(740.0078 683)" fill="gray">2052</text>
<g clip-path="url(#zr0-c0)">
<path d="M89.4922 446.99L110.4766 390.2189L131.4609 383.9045L152.4453 377.3433L173.4297 373.3137L194.4141 369.7142L215.3984 366.5761L236.3828 363.5467L257.3672 360.6465L278.3516 357.8891L299.3359 356.2169L320.3203 355.5365L341.3047 355.2379L362.2891 355.3599L383.2734 355.9465L404.2578 357.0531L425.2422 358.7224L446.2266 362.7098L467.2109 367.5914L488.1953 373.4457L509.1797 380.7046L530.1641 389.1238L551.1484 398.8063L572.1328 412.3179L593.1172 427.6005L614.1016 445.1326L635.0859 464.7464L656.0703 486.6204L677.0547 514.2431L698.0391 544.8911L719.0234 578.8223L740.0078 616.3051" fill="none" stroke="rgb(255,102,51)" stroke-width="3" stroke-linejoin="bevel"></path>
</g>
<g clip-path="url(#zr0-c1)">
<path d="M89.4922 446.99L110.4766 390.2189L131.4609 383.9045L152.4453 377.3433L173.4297 373.3137L194.4141 369.7142L215.3984 366.5761L236.3828 363.6516L257.3672 361.7551L278.3516 360.3236L299.3359 359.4297L320.3203 359.0927L341.3047 359.3675L362.2891 360.3242L383.2734 362.0377L404.2578 364.6109L425.2422 368.1248L446.2266 372.6634L467.2109 378.3401L488.1953 385.2714L509.1797 393.5941L530.1641 403.4404L551.1484 414.9524L572.1328 428.7853L593.1172 445.2892L614.1016 464.7686L635.0859 486.6266L656.0703 511.3269L677.0547 539.1234L698.0391 570.2558L719.0234 584.6617L740.0078 599.3507" fill="none" stroke="rgb(40,121,203)" stroke-width="3" stroke-linejoin="bevel"></path>
</g>
<g clip-path="url(#zr0-c2)">
<path d="M89.4922 446.99L110.4766 390.2189L131.4609 298.2395L152.4453 291.7319L173.4297 287.881L194.4141 288.2329L215.3984 283.9987L236.3828 281.3657L257.3672 280.977L278.3516 281.1555L299.3359 281.9679L320.3203 283.4693L341.3047 285.7283L362.2891 288.8166L383.2734 292.8144L404.2578 297.8181L425.2422 303.9122L446.2266 222.3478L467.2109 231.2072L488.1953 242.5103L509.1797 259.0955L530.1641 272.7757L551.1484 288.5127L572.1328 311.9222L593.1172 338.3225L614.1016 367.9688L635.0859 401.1357L656.0703 438.122L677.0547 479.2517L698.0391 524.8739L719.0234 575.3593L740.0078 631.1113" fill="none" stroke="rgb(46,55,69)" stroke-width="3" stroke-linejoin="bevel"></path>
</g>
<g clip-path="url(#zr0-c3)">
<path d="M89.4922 446.99L110.4766 390.2189L131.4609 298.2395L152.4453 291.7319L173.4297 287.881L194.4141 288.2329L215.3984 283.9987L236.3828 281.3657L257.3672 280.977L278.3516 281.814L299.3359 283.3102L320.3203 285.5156L341.3047 288.5511L362.2891 292.5406L383.2734 297.4176L404.2578 303.2567L425.2422 310.1095L446.2266 227.2033L467.2109 236.5689L488.1953 247.9993L509.1797 264.7596L530.1641 278.4251L551.1484 296.8985L572.1328 320.4945L593.1172 349.1506L614.1016 381.9357L635.0859 418.3701L656.0703 459.1049L677.0547 504.7188L698.0391 555.6277L719.0234 585.1518L740.0078 613.3809" fill="none" stroke="rgb(246,185,65)" stroke-width="3" stroke-linejoin="bevel"></path>
</g>
<path d="M-5 -5.5l755.9297 0l0 25l-755.9297 0Z" transform="translate(22.0352 50.5)" fill="rgb(0,0,0)" fill-opacity="0" stroke="#ccc" stroke-width="0"></path>
<path d="M19.5 7A7 7 0 1 1 19.5 6.9993" transform="translate(16.5352 50.5)" fill="#ff6633"></path>
<text dominant-baseline="central" text-anchor="start" style="font-size:12px;font-family:'Open Sans', sans-serif;" xml:space="preserve" x="30" y="7" transform="translate(16.5352 50.5)" fill="#333">Status Quo - Assumed Return</text>
<path d="M19.5 7A7 7 0 1 1 19.5 6.9993" transform="translate(216.1074 50.5)" fill="#2879cb"></path>
<text dominant-baseline="central" text-anchor="start" style="font-size:12px;font-family:'Open Sans', sans-serif;" xml:space="preserve" x="30" y="7" transform="translate(216.1074 50.5)" fill="#333">ADEC - Assumed Return</text>
<path d="M19.5 7A7 7 0 1 1 19.5 6.9993" transform="translate(388.9844 50.5)" fill="#2e3745"></path>
<text dominant-baseline="central" text-anchor="start" style="font-size:12px;font-family:'Open Sans', sans-serif;" xml:space="preserve" x="30" y="7" transform="translate(388.9844 50.5)" fill="#333">Status Quo - Double Recession</text>
<path d="M19.5 7A7 7 0 1 1 19.5 6.9993" transform="translate(596.5723 50.5)" fill="#f6b941"></path>
<text dominant-baseline="central" text-anchor="start" style="font-size:12px;font-family:'Open Sans', sans-serif;" xml:space="preserve" x="30" y="7" transform="translate(596.5723 50.5)" fill="#333">ADEC - Double Recession</text>
<path d="M-5 -5l106.5859 0l0 26l-106.5859 0Z" transform="translate(5 5)" fill="rgb(0,0,0)" fill-opacity="0" stroke="#ccc" stroke-width="0"></path>
<text dominant-baseline="central" text-anchor="start" style="font-size:16px;font-family:'Open Sans', sans-serif;font-weight:bold;" xml:space="preserve" y="8" transform="translate(5 5)" fill="#464646">UAL-MVA ($)</text>
<defs >
<clipPath id="zr0-c0">
<path d="M77 126l675 0l0 550.5l-675 0Z" fill="#000"></path>
</clipPath>
<clipPath id="zr0-c1">
<path d="M77 126l675 0l0 550.5l-675 0Z" fill="#000"></path>
</clipPath>
<clipPath id="zr0-c2">
<path d="M77 126l675 0l0 550.5l-675 0Z" fill="#000"></path>
</clipPath>
<clipPath id="zr0-c3">
<path d="M77 126l675 0l0 550.5l-675 0Z" fill="#000"></path>
</clipPath>
</defs>
</svg>